<?xml version="1.0" encoding="UTF-8" standalone="no"?>
<svg
   id="logo"
   width="475"
   height="147"
   viewBox="0 0 626.37363 185.54409"
   version="1.1"
   sodipodi:docname="intersystems-logo.svg"
   inkscape:version="1.4.4 (1:1.4.4+202605061432+dcaf3e7d9e)"
   inkscape:export-filename="intersystems-logo.png"
   inkscape:export-xdpi="200"
   inkscape:export-ydpi="200"
   xmlns:inkscape="http://www.inkscape.org/namespaces/inkscape"
   xmlns:sodipodi="http://sodipodi.sourceforge.net/DTD/sodipodi-0.dtd"
   xmlns="http://www.w3.org/2000/svg"
   xmlns:svg="http://www.w3.org/2000/svg">
  <sodipodi:namedview
     id="namedview35"
     pagecolor="#ffffff"
     bordercolor="#666666"
     borderopacity="1.0"
     inkscape:showpageshadow="2"
     inkscape:pageopacity="0.0"
     inkscape:pagecheckerboard="0"
     inkscape:deskcolor="#d1d1d1"
     inkscape:zoom="2.8338328"
     inkscape:cx="256.89589"
     inkscape:cy="115.21498"
     inkscape:window-width="2559"
     inkscape:window-height="1370"
     inkscape:window-x="1280"
     inkscape:window-y="32"
     inkscape:window-maximized="0"
     inkscape:current-layer="logo"
     inkscape:export-bgcolor="#ffffffff" />
  <defs
     id="defs1">
    <style
       id="style1">.cls-1{fill:#333695;}.cls-2{fill:#00b5af;}</style>
  </defs>
  <path
     class="cls-1"
     d="m 117.00681,97.186813 h -11.89 v -63.86 h 11.89 z"
     id="path1" />
  <path
     class="cls-1"
     d="m 164.39681,97.186813 h -11.71 v -26.68 c 0,-6.21 -4.26,-8.88 -8.7,-8.88 -4.44,0 -8.7,2.67 -8.7,8.88 v 26.68 h -11.71 v -45.76 h 11.71 v 4 c 2,-3.1 6.66,-5.23 10.74,-5.23 9.32,0 18.37,6.39 18.37,19.87 z"
     id="path2" />
  <path
     class="cls-1"
     d="m 193.94681,86.656813 v 10.53 h -11.27 c -8.16,0 -11.71,-4.35 -11.71,-11.71 v -44.43 h 11.71 v 10.38 h 11.27 v 10.56 h -11.27 v 21 c 0,2.13 0.53,3.64 3.37,3.64 z"
     id="path3" />
  <path
     class="cls-1"
     d="m 209.38681,77.426813 v 0.27 c 0,5.41 3.11,9 8.7,9 4.08,0 6.92,-2 8.08,-5.06 h 11.89 c -1.87,9.55 -8.79,15.55 -19.97,15.55 -13.13,0 -20.41,-8.34 -20.41,-21 v -5.86 c 0,-12.69 7.28,-21 20.41,-21 13.13,0 20.41,8.34 20.41,21 v 7.1 z m 0,-9.76 v 0.09 h 17.31 v -0.09 c -0.36,-4.79 -3.37,-7.81 -8.61,-7.81 -5.24,0 -8.25,3.11 -8.7,7.81 z"
     id="path4" />
  <path
     class="cls-1"
     d="m 256.95681,97.186813 h -11.71 v -45.76 h 11.71 v 5 c 1.33,-3 5.24,-5.77 10.65,-5.77 h 3.58 v 11.42 h -5.5 c -4.44,0 -8.7,2.66 -8.7,8.87 z"
     id="path5" />
  <path
     class="cls-1"
     d="m 276.77681,76.716813 h 12.25 c 0.71,5.24 4.79,8.7 10.74,8.7 5.23,0 8.87,-2 8.87,-6.21 0,-3.47 -2,-5.42 -6.39,-6.57 l -10.47,-2.84 c -9.5,-2.58 -14.2,-9.23 -14.2,-18.37 0,-12.43 9.76,-18.11 20.59,-18.11 12.42,0 20.14,7.28 21.47,17.84 h -12.24 c -1.07,-4.17 -5.42,-6 -9.41,-6 -5,0 -8.52,1.95 -8.52,6.3 0,3.64 2.84,5.23 6.21,6.12 l 10.12,2.75 c 9.58,2.58 14.73,8.43 14.73,18.91 0,11.18 -7.28,18 -20.76,18 -13.48,0 -22.37,-8.18 -22.99,-20.52 z"
     id="path6" />
  <path
     class="cls-1"
     d="m 348.90681,101.29681 c -2.48,6.92 -3.19,12 -11.36,12 h -8.69 v -10.58 h 4.88 a 2.82,2.82 0 0 0 3.1,-2 l 1.35,-3.769997 -16.34,-45.76 h 12.34 l 10.21,29.2 10.19,-29.2 h 12.34 z"
     id="path7" />
  <path
     class="cls-1"
     d="m 365.85681,81.506813 h 11.72 c 0.53,3.55 4.7,5.15 8.52,5.15 2.31,0 5.77,-0.53 5.77,-3.55 0,-1.86 -1.33,-2.93 -4.09,-3.55 l -9.59,-2.13 c -5,-1.15 -11.27,-5.06 -11.27,-14 0,-8.94 8.08,-14.11 17.48,-14.11 9.4,0 16.96,4.42 17.79,14.8 h -12 c -0.62,-2.93 -3.19,-4.26 -6.12,-4.26 -3.38,0 -5.33,1.33 -5.42,3.46 0,1.95 1.6,2.93 3.55,3.37 l 10.3,2.31 c 5,1.15 11.09,4.61 11.09,14.11 0,10.21 -8.25,14.11 -17.84,14.11 -9.59,0 -19.44,-4.88 -19.89,-15.71 z"
     id="path8" />
  <path
     class="cls-1"
     d="m 447.11681,77.426813 v 0.27 c 0,5.41 3.11,9 8.7,9 4.08,0 6.92,-2 8.07,-5.06 h 11.9 c -1.87,9.55 -8.79,15.55 -19.97,15.55 -13.14,0 -20.41,-8.34 -20.41,-21 v -5.86 c 0,-12.69 7.27,-21 20.41,-21 13.14,0 20.37,8.31 20.37,21 v 7.1 z m 0,-9.76 v 0.09 h 17.31 v -0.09 c -0.36,-4.79 -3.38,-7.81 -8.61,-7.81 -5.23,0 -8.26,3.11 -8.7,7.81 z"
     id="path9" />
  <path
     class="cls-1"
     d="m 523.26681,97.186813 h -11.72 v -26.68 c 0,-6.12 -4.26,-8.88 -8.43,-8.88 -4.17,0 -8.43,2.76 -8.43,8.88 v 26.68 h -11.72 v -45.76 h 11.72 v 3.81 a 13.13,13.13 0 0 1 10.38,-5 14.74,14.74 0 0 1 12.34,6 c 3.28,-4 8,-6 14.29,-6 11.62,0 20.14,6.47 20.14,19.87 v 27.08 h -11.71 v -26.68 c 0,-6.12 -4.26,-8.88 -8.43,-8.88 -4.17,0 -8.43,2.76 -8.43,8.88 z"
     id="path10" />
  <path
     class="cls-1"
     d="m 556.27681,81.506813 h 11.71 c 0.54,3.55 4.71,5.15 8.52,5.15 2.31,0 5.77,-0.53 5.77,-3.55 0,-1.86 -1.33,-2.93 -4.08,-3.55 l -9.59,-2.13 c -5,-1.15 -11.27,-5.06 -11.27,-14 0,-8.94 8.08,-14.11 17.49,-14.11 9.41,0 17,4.44 17.75,14.82 h -12 c -0.63,-2.93 -3.2,-4.26 -6.13,-4.26 -3.37,0 -5.32,1.33 -5.41,3.46 0,1.95 1.6,2.93 3.55,3.37 l 10.29,2.31 c 5,1.15 11.1,4.61 11.1,14.11 0.02,10.19 -8.24,14.06 -17.79,14.06 -9.55,0 -19.47,-4.85 -19.91,-15.68 z"
     id="path11" />
  <path
     class="cls-1"
     d="m 430.44681,86.656813 v 10.53 h -11.26 c -8.17,0 -11.72,-4.35 -11.72,-11.71 v -44.43 h 11.72 v 10.38 h 11.27 v 10.56 h -11.27 v 21 c 0,2.13 0.53,3.64 3.37,3.64 z"
     id="path12" />
  <path
     class="cls-1"
     d="m 605.88681,49.186813 a 7.31,7.31 0 1 1 -7.31,7.3 7.3,7.3 0 0 1 7.31,-7.3 z m 0,13.31 a 6,6 0 1 0 -6,-6 6,6 0 0 0 6,5.98 z m 3.53,-1.77 -2.15,-3.65 a 2.21,2.21 0 0 0 1.92,-2.39 2.34,2.34 0 0 0 -2.63,-2.45 h -3.45 v 8.47 h 1.38 v -3.59 h 1.32 l 2.11,3.59 z m -5,-7.1 h 2.07 c 0.73,0 1.21,0.37 1.21,1.1 0,0.73 -0.48,1.08 -1.21,1.08 h -2.07 z"
     id="path13" />
  <polygon
     class="cls-1"
     points="40.24,160.3 40.24,137.8 20.12,127.74 20.12,22.5 0,12.43 0,140.17 "
     id="polygon13"
     transform="translate(13.186813,13.186813)" />
  <polygon
     class="cls-2"
     points="20.12,0 20.12,22.5 40.24,32.56 40.24,137.8 60.36,147.88 60.36,20.13 "
     id="polygon14"
     transform="translate(13.186813,13.186813)" />
  <path
     class="cls-1"
     d="m 129.08681,150.43681 c -0.28,6.68 -4.59,11.09 -12,11.09 -7.63,0 -12,-4.73 -12,-11.77 v -9.18 c 0,-7 4.37,-11.77 12,-11.77 7.41,0 11.72,4.4 12,11.09 h -6.14 c -0.32,-3.23 -2.77,-5 -5.86,-5 -3.32,0 -5.91,2 -5.91,5.73 v 9.18 c 0,3.68 2.59,5.72 5.91,5.72 3.09,0 5.54,-1.77 5.86,-5 z"
     id="path14" />
  <path
     class="cls-1"
     d="m 138.30681,161.06681 h -6 v -23.45 h 6 v 2.57 c 0.68,-1.55 2.68,-3 5.46,-3 h 1.81 v 5.87 h -2.81 a 4.21,4.21 0 0 0 -4.46,4.54 z"
     id="path15" />
  <path
     class="cls-1"
     d="m 153.00681,151.38681 v 0.14 c 0,2.77 1.59,4.59 4.45,4.59 a 4.1,4.1 0 0 0 4.14,-2.59 h 6.09 c -1,4.91 -4.5,8 -10.23,8 -6.72,0 -10.45,-4.28 -10.45,-10.77 v -3 c 0,-6.5 3.73,-10.77 10.45,-10.77 6.72,0 10.45,4.27 10.45,10.77 v 3.63 z m 0,-5 v 0.05 h 8.86 v -0.05 a 4,4 0 0 0 -4.41,-4 4.13,4.13 0 0 0 -4.45,4 z"
     id="path16" />
  <path
     class="cls-1"
     d="m 185.79681,145.79681 a 4.54,4.54 0 0 0 -8.5,-0.82 h -6 c 1,-4.9 4.45,-8 10.18,-8 6.72,0 10.45,4.27 10.45,10.77 v 13.31 h -6 v -2.67 c -1.09,1.77 -2.95,3.14 -6.54,3.14 -5.37,0 -8.55,-2.64 -8.55,-7 0,-3.4 1.18,-5.45 4.46,-7 2.31,-1.1 7,-1.46 10.54,-1.73 z m -9,8.09 c 0,1.14 0.87,2.37 3.55,2.37 3.09,0 5.54,-1.73 5.54,-4.69 v -0.77 c -3.41,0.23 -6.68,0.5 -7.82,1.09 a 1.89,1.89 0 0 0 -1.27,2 z"
     id="path17" />
  <path
     class="cls-1"
     d="m 209.36681,155.65681 v 5.41 h -5.78 c -4.18,0 -6,-2.22 -6,-6 v -12 h -3.32 v -5.41 h 3.32 v -5.31 h 6 v 5.31 h 5.78 v 5.41 h -5.78 v 10.77 c 0,1.09 0.28,1.86 1.73,1.86 z"
     id="path18" />
  <path
     class="cls-1"
     d="m 218.65681,134.57681 h -6 v -5.32 h 6 z m 0,26.49 h -6 v -23.45 h 6 z"
     id="path19" />
  <path
     class="cls-1"
     d="m 237.87681,137.61681 h 6.31 l -8.45,23.45 h -6.18 l -8.46,-23.45 h 6.32 l 5.23,14.95 z"
     id="path20" />
  <path
     class="cls-1"
     d="m 250.71681,151.38681 v 0.14 c 0,2.77 1.59,4.59 4.45,4.59 a 4.09,4.09 0 0 0 4.14,-2.59 h 6.09 c -1,4.91 -4.5,8 -10.23,8 -6.72,0 -10.45,-4.28 -10.45,-10.77 v -3 c 0,-6.5 3.73,-10.77 10.45,-10.77 6.72,0 10.46,4.27 10.46,10.77 v 3.63 z m 0,-5 v 0.05 h 8.86 v -0.05 a 4,4 0 0 0 -4.41,-4 4.13,4.13 0 0 0 -4.45,4 z"
     id="path21" />
  <path
     class="cls-1"
     d="m 287.65681,161.52681 c -4.77,0 -9.4,-3.28 -9.4,-10.18 v -4.16 c 0,-6.91 4.63,-10.18 9.4,-10.18 a 7,7 0 0 1 5.5,2.68 v -10.43 h 6 v 31.81 h -6 v -2.22 a 7,7 0 0 1 -5.5,2.68 z m -3.4,-10.41 a 4.45,4.45 0 1 0 8.9,0 v -3.73 a 4.45,4.45 0 1 0 -8.9,0 z"
     id="path22" />
  <path
     class="cls-1"
     d="m 317.40681,145.79681 a 4.54,4.54 0 0 0 -8.5,-0.82 h -6 c 0.95,-4.9 4.45,-8 10.18,-8 6.72,0 10.45,4.27 10.45,10.77 v 13.31 h -6 v -2.67 c -1.09,1.77 -2.95,3.14 -6.54,3.14 -5.37,0 -8.55,-2.64 -8.55,-7 0,-3.4 1.18,-5.45 4.46,-7 2.31,-1.1 7,-1.46 10.54,-1.73 z m -9,8.09 c 0,1.14 0.87,2.37 3.55,2.37 3.09,0 5.54,-1.73 5.54,-4.69 v -0.77 c -3.41,0.23 -6.68,0.5 -7.82,1.09 a 1.9,1.9 0 0 0 -1.27,2 z"
     id="path23" />
  <path
     class="cls-1"
     d="m 340.61681,155.65681 v 5.41 h -5.77 c -4.18,0 -6,-2.22 -6,-6 v -12 h -3.32 v -5.41 h 3.32 v -5.31 h 6 v 5.31 h 5.77 v 5.41 h -5.77 v 10.77 c 0,1.09 0.27,1.86 1.73,1.86 z"
     id="path24" />
  <path
     class="cls-1"
     d="m 357.72681,145.79681 a 4.54,4.54 0 0 0 -8.5,-0.82 h -6.04 c 1,-4.9 4.46,-8 10.18,-8 6.73,0 10.45,4.27 10.45,10.77 v 13.31 h -6 v -2.67 c -1.09,1.77 -3,3.14 -6.55,3.14 -5.36,0 -8.54,-2.64 -8.54,-7 0,-3.4 1.18,-5.45 4.45,-7 2.32,-1.1 7,-1.46 10.55,-1.73 z m -9,8.09 c 0,1.14 0.86,2.37 3.54,2.37 3.09,0 5.55,-1.73 5.55,-4.69 v -0.77 c -3.41,0.23 -6.68,0.5 -7.82,1.09 a 1.89,1.89 0 0 0 -1.27,2 z"
     id="path25" />
  <path
     class="cls-1"
     d="m 389.18681,155.65681 v 5.41 h -5.8 c -4.18,0 -6,-2.22 -6,-6 v -12 h -3.32 v -5.41 h 3.32 v -5.31 h 6 v 5.31 h 5.8 v 5.41 h -5.8 v 10.77 c 0,1.09 0.27,1.86 1.72,1.86 z"
     id="path26" />
  <path
     class="cls-1"
     d="m 397.54681,151.38681 v 0.14 c 0,2.77 1.59,4.59 4.46,4.59 a 4.08,4.08 0 0 0 4.13,-2.59 h 6.05 c -1,4.91 -4.5,8 -10.22,8 -6.73,0 -10.46,-4.28 -10.46,-10.77 v -3 c 0,-6.5 3.73,-10.77 10.46,-10.77 6.73,0 10.45,4.27 10.45,10.77 v 3.63 z m 0,-5 v 0.05 h 8.86 v -0.05 a 4,4 0 0 0 -4.4,-4 4.14,4.14 0 0 0 -4.46,4 z"
     id="path27" />
  <path
     class="cls-1"
     d="m 436.33681,152.52681 c -0.63,5.5 -4.27,9 -10.36,9 -6.72,0 -10.45,-4.28 -10.45,-10.77 v -3 c 0,-6.5 3.73,-10.77 10.45,-10.77 6.09,0 9.73,3.5 10.36,9 h -6 a 4.06,4.06 0 0 0 -4.36,-3.59 c -2.86,0 -4.45,1.82 -4.45,4.59 v 4.55 c 0,2.77 1.59,4.59 4.45,4.59 a 4,4 0 0 0 4.36,-3.59 z"
     id="path28" />
  <path
     class="cls-1"
     d="m 460.73681,161.06681 h -6 v -13.68 a 4.46,4.46 0 1 0 -8.91,0 v 13.68 h -6 v -31.81 h 6 v 10.41 a 7,7 0 0 1 5.5,-2.68 c 4.77,0 9.41,3.27 9.41,10.18 z"
     id="path29" />
  <path
     class="cls-1"
     d="m 485.73681,161.06681 h -6 v -13.68 a 4.46,4.46 0 1 0 -8.91,0 v 13.68 h -6 v -23.45 h 6 v 2 a 7,7 0 0 1 5.5,-2.68 c 4.77,0 9.41,3.27 9.41,10.18 z"
     id="path30" />
  <path
     class="cls-1"
     d="m 489.32681,147.75681 c 0,-6.5 3.72,-10.77 10.45,-10.77 6.73,0 10.41,4.27 10.41,10.77 v 3 c 0,6.49 -3.72,10.77 -10.45,10.77 -6.73,0 -10.45,-4.28 -10.45,-10.77 z m 14.9,-0.78 c 0,-2.77 -1.59,-4.59 -4.45,-4.59 -2.86,0 -4.45,1.82 -4.45,4.59 v 4.55 c 0,2.77 1.59,4.59 4.45,4.59 2.86,0 4.45,-1.82 4.45,-4.59 z"
     id="path31" />
  <path
     class="cls-1"
     d="m 522.50681,155.65681 v 5.41 h -2.91 c -4.18,0 -6,-2.22 -6,-6 v -25.81 h 6 v 24.54 c 0,1.09 0.27,1.86 1.72,1.86 z"
     id="path32" />
  <path
     class="cls-1"
     d="m 524.45681,147.75681 c 0,-6.5 3.73,-10.77 10.45,-10.77 6.72,0 10.45,4.27 10.45,10.77 v 3 c 0,6.49 -3.72,10.77 -10.45,10.77 -6.73,0 -10.45,-4.28 -10.45,-10.77 z m 14.91,-0.78 c 0,-2.77 -1.59,-4.59 -4.46,-4.59 -2.87,0 -4.45,1.82 -4.45,4.59 v 4.55 c 0,2.77 1.59,4.59 4.45,4.59 2.86,0 4.46,-1.82 4.46,-4.59 z"
     id="path33" />
  <path
     class="cls-1"
     d="m 554.40681,161.18681 a 4,4 0 0 0 4.32,3.27 c 2.86,0 4.45,-1.82 4.45,-4.59 v -2.68 a 7,7 0 0 1 -5.5,2.69 c -4.77,0 -9.4,-3.28 -9.4,-10.18 v -2.51 c 0,-6.91 4.63,-10.18 9.4,-10.18 a 7,7 0 0 1 5.5,2.68 v -2 h 6 v 21.5 c 0,6.5 -3.73,10.77 -10.45,10.77 -5.95,0 -9.59,-3.36 -10.32,-8.68 z m -0.14,-11.77 a 4.46,4.46 0 1 0 8.91,0 v -2.03 a 4.46,4.46 0 1 0 -8.91,0 z"
     id="path34" />
  <path
     class="cls-1"
     d="m 584.76681,163.29681 c -1.27,3.54 -1.64,6.13 -5.82,6.13 h -4.45 v -5.4 h 2.5 a 1.45,1.45 0 0 0 1.59,-1.05 l 0.68,-1.91 -8.36,-23.45 h 6.28 l 5.22,14.95 5.23,-14.95 h 6.32 z"
     id="path35" />
</svg>
